# File created by Blade
# Date/Time:  Thu Sep 25 15:55:53 2014
# Frame Rate: 120.000 fps
#------------------------------------------------------
:FULLY-SPECIFIED
:DEGREES
158
root -3.562426 32.174781 -9.600622 17.236881 -0.535098 -2.485149
Spine -9.105585 3.354623 1.626810
Head -18.134005 -3.978787 11.564057
LeftShoulder -7.873092 22.225952 16.542040
LeftArm 39.883845 20.039622 -53.896108
LeftForeArm 22.605905 0.000000 54.643393
LeftHand -28.344337 0.000000 3.665553
LeftHandThumb1 -26.253704 0.000000 33.147579
RightShoulder -15.824994 5.366814 -25.226448
RightArm -21.143141 -11.647019 83.782641
RightForeArm -25.044311 -0.000000 22.087582
RightHand -3.922892 -0.000000 -6.164087
RightHandThumb1 -24.326973 -0.000000 -32.862282
LeftUpLeg -0.263119 8.482363 -2.246229
LeftLeg -2.665094 -0.000000 0.000000
LeftFoot -23.174748 12.613360 -26.970418
LeftToeBase 0.347858 -0.000000 -0.000000
RightUpLeg -46.793528 -2.413757 5.088654
RightLeg 41.619563 -0.000000 -0.000000
RightFoot -4.047219 -10.086335 -4.439216
RightToeBase -3.713611 -0.000000 0.000000
159
root -3.539872 32.196983 -9.625745 17.340406 -0.346678 -2.478068
Spine -9.125975 3.091441 1.790510
Head -18.279417 -3.863838 11.359577
LeftShoulder -7.718876 21.968567 16.608736
LeftArm 40.101382 19.979430 -54.047937
LeftForeArm 22.764139 -0.000000 54.576521
LeftHand -28.254787 -0.000000 3.521577
LeftHandThumb1 -26.253704 0.000000 33.147579
RightShoulder -15.744475 5.303097 -25.341512
RightArm -21.340528 -11.593168 83.878992
RightForeArm -24.901214 -0.000000 22.039478
RightHand -3.888065 0.000000 -6.229498
RightHandThumb1 -24.326973 -0.000000 -32.862282
LeftUpLeg -0.488471 8.419424 -2.239090
LeftLeg -2.534090 -0.000000 0.000000
LeftFoot -22.988692 12.421768 -26.991653
LeftToeBase 0.287151 -0.000000 -0.000000
RightUpLeg -47.207269 -3.051676 5.548427
RightLeg 41.717449 -0.000000 -0.000000
RightFoot -4.241015 -9.600116 -3.396743
RightToeBase -3.323048 -0.000000 0.000000
160
root -3.516304 32.215253 -9.645305 17.433902 -0.140533 -2.458490
Spine -9.132155 2.806989 1.956566
Head -18.442485 -3.731757 11.170230
LeftShoulder -7.530066 21.595624 16.726207
LeftArm 40.219685 20.006265 -54.215257
LeftForeArm 22.753915 -0.000000 54.576553
LeftHand -28.243823 -0.000000 3.561256
LeftHandThumb1 -26.253704 0.000000 33.147579
RightShoulder -15.670743 5.307721 -25.474182
RightArm -21.594386 -11.489819 83.934189
RightForeArm -24.754071 0.000000 22.000664
RightHand -3.791859 -0.000000 -6.251851
RightHandThumb1 -24.326973 -0.000000 -32.862282
LeftUpLeg -0.682084 8.399218 -2.249541
LeftLeg -2.426692 -0.000000 0.000000
LeftFoot -22.795230 12.177414 -27.089037
LeftToeBase 0.185102 -0.000000 -0.000000
RightUpLeg -47.561887 -3.576602 5.894300
RightLeg 41.703740 -0.000000 -0.000000
RightFoot -4.402033 -9.083828 -2.298452
RightToeBase -2.877657 -0.000000 0.000000
161
root -3.494166 32.230837 -9.657818 17.497742 0.062411 -2.468901
Spine -9.097668 2.568744 2.160969
Head -18.656914 -3.654517 10.984137
LeftShoulder -7.317079 21.227755 16.827762
LeftArm 40.358050 19.972848 -54.393603
LeftForeArm 22.821568 -0.000000 54.608934
LeftHand -28.154015 -0.000000 3.217352
LeftHandThumb1 -26.253704 0.000000 33.147579
RightShoulder -15.629172 5.291299 -25.598722
RightArm -21.824562 -11.360099 83.954178
RightForeArm -24.635633 -0.000000 21.961284
RightHand -3.769808 -0.000000 -6.274015
RightHandThumb1 -24.326973 -0.000000 -32.862282
LeftUpLeg -0.812025 8.497005 -2.228220
LeftLeg -2.370132 -0.000000 0.000000
LeftFoot -22.461793 11.927768 -26.835488
LeftToeBase -0.010308 -0.000000 0.000000
RightUpLeg -47.826780 -4.025527 6.243251
RightLeg 41.518476 -0.000000 -0.000000
RightFoot -4.384815 -8.382945 -1.128081
RightToeBase -2.758167 -0.000000 0.000000
162
root -3.477681 32.242250 -9.659989 17.559155 0.230739 -2.531856
Spine -9.088476 2.382332 2.400698
Head -18.852799 -3.573641 10.850175
LeftShoulder -7.105244 21.015588 16.919388
LeftArm 40.621797 19.885504 -54.497032
LeftForeArm 22.962051 -0.000000 54.694436
LeftHand -28.103304 -0.000000 3.212935
LeftHandThumb1 -26.253704 0.000000 33.147579
RightShoulder -15.595723 5.219213 -25.686811
RightArm -22.007341 -11.365202 83.965875
RightForeArm -24.461128 0.000000 21.889339
RightHand -3.736072 -0.000000 -6.430099
RightHandThumb1 -24.326973 -0.000000 -32.862282
LeftUpLeg -0.885665 8.723850 -2.152289
LeftLeg -2.399468 -0.000000 0.000000
LeftFoot -22.310009 11.542794 -26.976288
LeftToeBase 0.235229 -0.000000 -0.000000
RightUpLeg -48.024763 -4.400020 6.636115
RightLeg 41.187029 -0.000000 -0.000000
RightFoot -4.407889 -7.743696 0.010220
RightToeBase -2.593079 -0.000000 0.000000
163
root -3.464394 32.248698 -9.655014 17.612686 0.382846 -2.601944
Spine -9.075189 2.184855 2.634260
Head -19.071228 -3.474506 10.754147
LeftShoulder -6.919356 20.750618 17.034787
LeftArm 40.875407 19.869578 -54.531207
LeftForeArm 23.016877 0.000000 54.829849
LeftHand -28.161302 -0.000000 3.214499
LeftHandThumb1 -26.253704 0.000000 33.147579
RightShoulder -15.561255 5.132612 -25.748567
RightArm -22.155396 -11.314367 83.934850
RightForeArm -24.379043 -0.000000 21.850415
RightHand -3.832870 -0.000000 -6.620760
RightHandThumb1 -24.326973 -0.000000 -32.862282
LeftUpLeg -0.917271 9.002916 -2.071559
LeftLeg -2.456961 -0.000000 0.000000
LeftFoot -22.094446 11.153113 -26.960630
LeftToeBase 0.256793 -0.000000 -0.000000
RightUpLeg -48.161486 -4.707941 7.003828
RightLeg 40.718295 -0.000000 -0.000000
RightFoot -4.338480 -6.952107 0.803393
RightToeBase -2.415236 -0.000000 0.000000
164
root -3.455936 32.250546 -9.644686 17.691399 0.488484 -2.705730
Spine -9.106059 2.069045 2.859366
Head -19.255151 -3.371683 10.744485
LeftShoulder -6.725052 20.531470 17.137116
LeftArm 41.213236 19.891355 -54.356569
LeftForeArm 23.013266 0.000000 55.068271
LeftHand -28.329383 -0.000000 3.365110
LeftHandThumb1 -26.253704 0.000000 33.147579
RightShoulder -15.559904 5.051738 -25.788558
RightArm -22.329070 -11.228228 83.852587
RightForeArm -24.207243 -0.000000 21.795708
RightHand -3.707210 -0.000000 -7.043928
RightHandThumb1 -24.326973 -0.000000 -32.862282
LeftUpLeg -0.945087 9.325482 -1.978617
LeftLeg -2.544401 -0.000000 0.000000
LeftFoot -21.918958 10.787969 -26.941063
LeftToeBase 0.312575 -0.000000 -0.000000
RightUpLeg -48.266299 -4.878160 7.346607
RightLeg 40.108860 -0.000000 -0.000000
RightFoot -4.162763 -6.171010 1.646937
RightToeBase -2.278902 -0.000000 0.000000
165
root -3.446662 32.247352 -9.628991 17.760922 0.580366 -2.778555
Spine -9.130536 1.933086 3.039513
Head -19.447466 -3.270133 10.771887
LeftShoulder -6.559171 20.345118 17.265943
LeftArm 41.628607 19.904195 -54.160390
LeftForeArm 23.019787 -0.000000 55.272859
LeftHand -28.400085 -0.000000 3.460849
LeftHandThumb1 -26.253704 0.000000 33.147579
RightShoulder -15.534538 4.927075 -25.786628
RightArm -22.477260 -10.826013 83.669149
RightForeArm -24.227030 -0.000000 21.866155
RightHand -3.777286 -0.000000 -6.747238
RightHandThumb1 -24.326973 -0.000000 -32.862282
LeftUpLeg -0.930342 9.669772 -1.922251
LeftLeg -2.684788 -0.000000 0.000000
LeftFoot -21.754350 10.466568 -26.838864
LeftToeBase 0.397027 -0.000000 -0.000000
RightUpLeg -48.327912 -4.977716 7.619152
RightLeg 39.407570 -0.000000 -0.000000
RightFoot -3.923471 -5.346636 2.478712
RightToeBase -2.052604 -0.000000 0.000000
166
root -3.434658 32.240431 -9.604920 17.838381 0.703792 -2.835216
Spine -9.181995 1.743357 3.212909
Head -19.657081 -3.148342 10.828035
LeftShoulder -6.378015 20.180298 17.452237
LeftArm 41.980276 19.765825 -54.291409
LeftForeArm 23.309650 -0.000000 55.428743
LeftHand -28.435881 0.000000 3.225434
LeftHandThumb1 -26.253704 0.000000 33.147579
RightShoulder -15.491124 4.908829 -25.771509
RightArm -22.738440 -10.522272 83.457053
RightForeArm -24.067962 -0.000000 21.932158
RightHand -3.849408 0.000000 -6.525492
RightHandThumb1 -24.326973 -0.000000 -32.862282
LeftUpLeg -0.895449 9.973690 -1.878448
LeftLeg -2.864707 -0.000000 0.000000
LeftFoot -21.560842 10.154340 -26.763462
LeftToeBase 0.351548 -0.000000 -0.000000
RightUpLeg -48.347115 -5.090709 7.863958
RightLeg 38.575312 -0.000000 -0.000000
RightFoot -3.687848 -4.544661 3.085578
RightToeBase -1.781964 -0.000000 0.000000
167
root -3.430524 32.228504 -9.570899 17.878638 0.777661 -2.907821
Spine -9.214097 1.624241 3.349141
Head -19.839065 -3.054875 10.886134
LeftShoulder -6.225517 20.095610 17.626739
LeftArm 42.529056 19.679789 -54.134364
LeftForeArm 23.438574 -0.000000 55.562435
LeftHand -28.261390 -0.000000 3.394678
LeftHandThumb1 -26.253704 0.000000 33.147579
RightShoulder -15.494042 4.833352 -25.703464
RightArm -22.991276 -10.443755 83.301277
RightForeArm -23.682011 -0.000000 22.003003
RightHand -3.964861 -0.000000 -6.964406
RightHandThumb1 -24.326973 -0.000000 -32.862282
LeftUpLeg -0.777685 10.291178 -1.815760
LeftLeg -3.091081 -0.000000 0.000000
LeftFoot -21.460806 9.916805 -26.705324
LeftToeBase 0.504210 -0.000000 -0.000000
RightUpLeg -48.268995 -5.159749 8.145592
RightLeg 37.625086 -0.000000 -0.000000
RightFoot -3.371372 -3.657607 3.386850
RightToeBase -1.733560 -0.000000 0.000000
